<svg width="220" height="180" viewBox="0 0 220 180" fill="none" xmlns="http://www.w3.org/2000/svg" role="img" aria-labelledby="title desc">
  <title id="title">WIRC logo</title>
  <desc id="desc">Stylized WIRC logo inspired by mIRC, with a blue W, orange irc letters, and a yellow face wearing sunglasses.</desc>
  <defs>
    <linearGradient id="blueFront" x1="20" y1="10" x2="120" y2="110" gradientUnits="userSpaceOnUse">
      <stop offset="0" stop-color="#A7BCFF"/>
      <stop offset="0.45" stop-color="#6687FF"/>
      <stop offset="1" stop-color="#2D4FCA"/>
    </linearGradient>
    <linearGradient id="blueSide" x1="18" y1="18" x2="100" y2="120" gradientUnits="userSpaceOnUse">
      <stop offset="0" stop-color="#6C86E8"/>
      <stop offset="1" stop-color="#1F378C"/>
    </linearGradient>
    <linearGradient id="orangeFront" x1="28" y1="96" x2="142" y2="168" gradientUnits="userSpaceOnUse">
      <stop offset="0" stop-color="#FFBE42"/>
      <stop offset="0.45" stop-color="#FF7A00"/>
      <stop offset="1" stop-color="#DD3E00"/>
    </linearGradient>
    <linearGradient id="orangeSide" x1="20" y1="88" x2="122" y2="170" gradientUnits="userSpaceOnUse">
      <stop offset="0" stop-color="#DB6400"/>
      <stop offset="1" stop-color="#8F2200"/>
    </linearGradient>
    <radialGradient id="face" cx="0" cy="0" r="1" gradientUnits="userSpaceOnUse" gradientTransform="translate(171 110) rotate(128.157) scale(65.0622)">
      <stop offset="0" stop-color="#FFF17C"/>
      <stop offset="0.58" stop-color="#FFD53B"/>
      <stop offset="1" stop-color="#F4A700"/>
    </radialGradient>
    <filter id="shadow" x="0" y="0" width="220" height="180" filterUnits="userSpaceOnUse" color-interpolation-filters="sRGB">
      <feDropShadow dx="0" dy="10" stdDeviation="8" flood-color="#000000" flood-opacity="0.24"/>
    </filter>
  </defs>

  <g filter="url(#shadow)">
    <g>
      <path d="M22 26L35 38V114L22 104V26Z" fill="url(#blueSide)"/>
      <path d="M35 38L52 28V95L63 81L77 91V22L93 12V78L106 65L119 75V30L133 19V95L119 108L105 98V58L93 69V115L77 127L63 116V68L52 82V123L35 134V38Z" fill="url(#blueFront)"/>
      <path d="M133 19L146 29V105L133 95V19Z" fill="#3558CA" opacity="0.9"/>
    </g>

    <g>
      <path d="M22 104L35 116V166L22 154V104Z" fill="url(#orangeSide)"/>
      <path d="M35 116L53 106V157L35 166V116Z" fill="url(#orangeFront)"/>
      <path d="M57 105L70 116V159L57 149V105Z" fill="url(#orangeSide)"/>
      <path d="M70 116L88 105V149L70 159V116Z" fill="url(#orangeFront)"/>
      <path d="M95 101L109 113V149C109 157 104 163 96 166L94 167L81 156L84 155C91 153 95 148 95 141V101Z" fill="url(#orangeSide)"/>
      <path d="M109 113L127 102V138C127 150 119 160 108 164L96 166C104 163 109 157 109 149V113Z" fill="url(#orangeFront)"/>
      <path d="M129 100L143 112V142L129 153V100Z" fill="url(#orangeSide)"/>
      <path d="M143 112L160 101V141L143 152V112Z" fill="url(#orangeFront)"/>
    </g>

    <g transform="translate(132 61)">
      <circle cx="45" cy="49" r="38" fill="url(#face)"/>
      <path d="M14 54C24 43 42 37 61 40C70 42 77 46 81 51C75 70 59 85 40 87C28 88 18 81 14 54Z" fill="#1B1B1B" opacity="0.22"/>
      <path d="M19 52C25 44 37 39 49 39C59 39 68 42 75 47" stroke="#7A3E00" stroke-width="4" stroke-linecap="round"/>
      <path d="M18 45C22 40 29 36 37 36C43 36 49 38 54 42" stroke="#111" stroke-width="8" stroke-linecap="round"/>
      <path d="M54 42C59 38 66 36 73 36C81 36 87 39 92 45" stroke="#111" stroke-width="8" stroke-linecap="round"/>
      <path d="M15 47H52V60H15C12 60 10 58 10 55V52C10 49 12 47 15 47Z" fill="#0C0C0C"/>
      <path d="M56 47H89C92 47 94 49 94 52V55C94 58 92 60 89 60H56V47Z" fill="#0C0C0C"/>
      <rect x="49" y="50" width="8" height="6" rx="2" fill="#0C0C0C"/>
      <path d="M25 73C31 79 40 82 50 82C59 82 67 79 73 74" stroke="#7A3E00" stroke-width="5" stroke-linecap="round"/>
    </g>
  </g>
</svg>
